<?xml version="1.0" encoding="UTF-8"?>
<svg id="Layer_2" data-name="Layer 2" xmlns="http://www.w3.org/2000/svg" viewBox="0 0 702.2 115.55">
  <g id="spacecowboy94">
    <g>
      <path d="m60.36,16.7c-.95,0-1.56-.41-2.04-1.29-3.46-5.91-14.05-8.01-24.24-8.01s-19.01,1.56-19.01,6.18c0,2.78,3.19,4.14,9.23,4.62l25.12,1.97c10.93.88,22.61,2.31,22.61,13.44,0,12.29-13.92,17.72-32.25,17.72-7.94,0-19.15-1.02-26.48-4.89-1.02-.61-1.83-.34-2.38.68l-.54,1.02c-.41.88-1.09,1.29-2.04,1.29H2.58c-1.15,0-1.77-.61-1.77-1.77v-12.29c0-1.15.61-1.77,1.77-1.77h7.13c.95,0,1.56.41,2.04,1.29,4.14,7.13,15.68,9.17,26.48,9.17,10.05,0,18.4-1.83,18.4-6.18,0-2.51-2.85-4.21-8.42-4.68l-25.05-2.04C12.02,30.28,0,27.57,0,17.04,0,3.6,18.54.14,32.05.14c10.46,0,20.03,1.9,24.78,4.68,1.02.54,1.83.41,2.31-.68l.48-.95c.48-.88,1.15-1.29,2.1-1.29h5.77c1.15,0,1.77.61,1.77,1.77v11.27c0,1.15-.61,1.77-1.77,1.77h-7.13Z"/>
      <path d="m131.92,1.9c18.6,0,27.57,5.97,27.57,14.8s-8.96,14.8-27.57,14.8h-24.1c-1.15,0-1.77.61-1.77,1.77v5.02c0,3.39,1.36,4.07,4.07,4.07h6.93c1.15,0,1.77.61,1.77,1.77v3.53c0,1.15-.61,1.77-1.77,1.77h-38.29c-1.15,0-1.77-.61-1.77-1.77v-3.53c0-1.15.61-1.77,1.77-1.77h6.93c2.72,0,4.07-.68,4.07-4.07V13.04c0-3.39-1.36-4.07-4.07-4.07h-6.93c-1.15,0-1.77-.61-1.77-1.77v-3.53c0-1.15.61-1.77,1.77-1.77h53.16Zm-4.07,7.06h-20.03c-1.15,0-1.77.61-1.77,1.77v11.95c0,1.15.61,1.77,1.77,1.77h20.03c9.37,0,13.85-2.1,13.85-7.74s-4.48-7.74-13.85-7.74Z"/>
      <path d="m242.94,42.37c.75,0,1.15.61,1.15,1.77v3.53c0,1.15-.61,1.77-1.77,1.77h-35.31c-1.15,0-1.77-.61-1.77-1.77v-3.53c0-1.15.61-1.77,1.77-1.77h5.36c2.85,0,3.67-1.9,2.04-4.14l-1.77-2.44c-.61-.75-1.22-1.09-2.17-1.09h-33.13c-.88,0-1.56.34-2.1,1.09l-1.83,2.44c-1.7,2.24-.82,4.14,2.04,4.14h5.64c1.15,0,1.77.61,1.77,1.77v3.53c0,1.15-.61,1.77-1.77,1.77h-28.45c-1.15,0-1.77-.61-1.77-1.77v-3.53c0-1.15.41-1.77,1.15-1.77h1.15c4.48,0,6.38-.95,9.1-4.48l18.81-24.78c1.77-2.31,1.02-4.14-2.04-4.14h-3.39c-1.15,0-1.77-.61-1.77-1.77v-3.53c0-1.15.61-1.77,1.77-1.77h29.2c.95,0,1.63.34,2.17,1.09l25.66,34.9c2.58,3.53,4.62,4.48,9.1,4.48h1.15Zm-38.97-14.73c1.49,0,1.97-.95,1.09-2.17l-9.78-13.31c-.75-1.02-1.7-1.02-2.44,0l-9.91,13.31c-.88,1.22-.41,2.17,1.02,2.17h20.03Z"/>
      <path d="m309.27,19.15c-1.02,0-1.63-.41-2.04-1.36-3.46-7.47-10.12-10.73-21.79-10.73-17.58,0-24.1,7.26-24.1,18.6s6.52,18.6,24.1,18.6c11.68,0,19.89-3.19,22.68-11.2.41-1.02.95-1.49,2.04-1.49h7.06c1.29,0,1.9.75,1.49,1.97-4.07,12.36-15.68,17.79-35.71,17.79-24.31,0-39.72-8.08-39.72-25.66S259.23,0,282.25,0c10.32,0,17.79,1.7,22.95,4.96,1.02.61,1.83.48,2.44-.54l.75-1.29c.54-.88,1.15-1.22,2.17-1.22h6.31c1.15,0,1.77.61,1.77,1.77v13.72c0,1.15-.61,1.77-1.77,1.77h-7.6Z"/>
      <path d="m356.39,8.96c-1.15,0-1.77.61-1.77,1.77v9.3c0,1.15.61,1.77,1.77,1.77h12.49c6.11,0,7.47-1.7,7.47-6.11,0-1.02.61-1.56,1.77-1.56h4.62c1.15,0,1.77.61,1.77,1.77v18.87c0,1.15-.61,1.77-1.77,1.77h-4.62c-1.15,0-1.77-.41-1.77-1.56,0-4.41-1.29-6.11-7.47-6.11h-12.49c-1.15,0-1.77.61-1.77,1.77v9.98c0,1.15.61,1.77,1.77,1.77h29.81c8.22,0,10.12-3.67,10.86-11.34.07-1.09.68-1.7,1.83-1.7h5.36c1.15,0,1.77.61,1.77,1.77v16.57c0,1.15-.61,1.77-1.77,1.77h-76.93c-1.15,0-1.77-.61-1.77-1.77v-3.53c0-1.15.61-1.77,1.77-1.77h6.93c2.72,0,4.07-.68,4.07-4.07V13.04c0-3.39-1.36-4.07-4.07-4.07h-6.93c-1.15,0-1.77-.61-1.77-1.77v-3.53c0-1.15.61-1.77,1.77-1.77h76.25c1.15,0,1.77.61,1.77,1.77v14.53c0,1.15-.61,1.77-1.77,1.77h-5.36c-1.15,0-1.77-.61-1.83-1.7-.81-6.86-2.72-9.3-10.86-9.3h-29.13Z"/>
      <path d="m216.86,83.36c-1.02,0-1.63-.41-2.04-1.36-3.46-7.47-10.12-10.73-21.79-10.73-17.59,0-24.1,7.26-24.1,18.6s6.52,18.6,24.1,18.6c11.68,0,19.89-3.19,22.68-11.2.41-1.02.95-1.49,2.04-1.49h7.06c1.29,0,1.9.75,1.49,1.97-4.07,12.36-15.68,17.79-35.71,17.79-24.31,0-39.72-8.08-39.72-25.66s15.96-25.66,38.97-25.66c10.32,0,17.79,1.7,22.95,4.96,1.02.61,1.83.48,2.44-.54l.75-1.29c.54-.88,1.15-1.22,2.17-1.22h6.31c1.15,0,1.76.61,1.76,1.77v13.72c0,1.15-.61,1.77-1.76,1.77h-7.6Z"/>
      <path d="m232.69,89.88c0-17.65,15.28-25.66,41.76-25.66s41.76,8.01,41.76,25.66-15.28,25.66-41.76,25.66-41.76-8.01-41.76-25.66Zm41.76,18.6c17.65,0,23.7-7.06,23.7-18.6s-5.36-18.6-23.7-18.6-23.7,7.06-23.7,18.6,6.04,18.6,23.7,18.6Z"/>
      <path d="m437.73,66.12c1.15,0,1.77.61,1.77,1.77v3.53c0,1.15-.41,1.77-1.15,1.77h-1.15c-4.75,0-7.13.88-9.1,4.48l-18.81,34.76c-.48.82-1.09,1.22-2.11,1.22h-13.04c-1.02,0-1.63-.41-2.1-1.22l-12.83-23.08c-.75-1.29-1.77-1.29-2.44,0l-12.42,23.08c-.48.82-1.09,1.22-2.1,1.22h-13.04c-1.02,0-1.63-.41-2.1-1.22l-19.35-34.76c-1.97-3.6-4.35-4.48-9.1-4.48h-.54c-1.15,0-1.76-.61-1.76-1.77v-3.53c0-1.15.61-1.77,1.76-1.77h34.22c1.15,0,1.76.61,1.76,1.77v3.53c0,1.15-.61,1.77-1.76,1.77h-4.69c-2.72,0-3.33,1.77-2.04,4.14l12.42,23.29c.68,1.29,1.77,1.29,2.44,0l11.47-21.86c.41-.88.48-1.63-.14-2.44-1.63-2.04-3.94-3.12-6.86-3.12-1.15,0-1.76-.61-1.76-1.77v-3.53c0-1.15.61-1.77,1.76-1.77h32.32c1.15,0,1.77.61,1.77,1.77v3.53c0,1.15-.61,1.77-1.77,1.77h-4.69c-2.72,0-3.33,1.77-2.04,4.14l12.42,23.29c.68,1.29,1.77,1.29,2.44,0l12.15-23.29c1.09-2.04.61-4.14-2.1-4.14h-5.09c-1.15,0-1.77-.61-1.77-1.77v-3.53c0-1.15.61-1.77,1.77-1.77h27.36Z"/>
      <path d="m527.91,100.41c0,7.94-8.96,13.24-26.89,13.24h-55.74c-1.15,0-1.77-.61-1.77-1.77v-3.53c0-1.15.61-1.77,1.77-1.77h6.93c2.72,0,4.07-.68,4.07-4.07v-25.26c0-3.39-1.36-4.07-4.07-4.07h-6.93c-1.15,0-1.77-.61-1.77-1.77v-3.53c0-1.15.61-1.77,1.77-1.77h53.98c17.04,0,25.94,4.96,25.94,12.22,0,4.75-3.94,9.44-13.17,10.52-.88.07-.88.34,0,.48,11.61,1.43,15.89,5.57,15.89,11.07Zm-55.34-16.09c0,1.15.61,1.77,1.77,1.77h20.91c8.83,0,12.08-2.04,12.08-6.45s-3.26-6.45-12.08-6.45h-20.91c-1.15,0-1.77.61-1.77,1.77v9.37Zm24.44,22.27c8.83,0,12.76-2.04,12.76-6.79s-3.94-6.79-12.76-6.79h-22.68c-1.15,0-1.77.61-1.77,1.77v10.05c0,1.15.61,1.77,1.77,1.77h22.68Z"/>
      <path d="m533.41,89.88c0-17.65,15.28-25.66,41.76-25.66s41.76,8.01,41.76,25.66-15.28,25.66-41.76,25.66-41.76-8.01-41.76-25.66Zm41.76,18.6c17.65,0,23.7-7.06,23.7-18.6s-5.36-18.6-23.7-18.6-23.7,7.06-23.7,18.6,6.04,18.6,23.7,18.6Z"/>
      <path d="m670.29,95.52c-.68.61-.95,1.29-.95,2.17v4.82c0,3.39,1.36,4.07,4.07,4.07h6.93c1.15,0,1.77.61,1.77,1.77v3.53c0,1.15-.61,1.77-1.77,1.77h-38.29c-1.15,0-1.76-.61-1.76-1.77v-3.53c0-1.15.61-1.77,1.76-1.77h6.93c2.72,0,4.07-.68,4.07-4.07v-4.01c0-.88-.27-1.56-.95-2.17l-21.79-19.69c-3.12-2.85-6.25-3.46-10.66-3.46-1.09,0-1.63-.61-1.63-1.77v-3.53c0-1.15.61-1.77,1.77-1.77h35.98c1.15,0,1.77.61,1.77,1.77v3.53c0,1.15-.61,1.77-1.77,1.77h-4.48c-2.51,0-3.12,1.77-1.36,3.33l13.38,11.88c.82.68,1.63.68,2.44-.07l13.1-11.81c1.77-1.56,1.15-3.33-1.36-3.33h-4.48c-1.15,0-1.77-.61-1.77-1.77v-3.53c0-1.15.61-1.77,1.77-1.77h27.43c1.15,0,1.77.61,1.77,1.77v3.53c0,1.36-.41,1.77-1.63,1.77-4.41,0-6.86.54-9.98,3.46l-20.3,18.88Z"/>
    </g>
  </g>
</svg>